#N canvas 115 27 1349 614 12;
#X obj 240 423 unpack f f;
#X obj 212 464 phasor~;
#X msg 86 412 440;
#X obj 223 547 dac~;
#X obj 216 511 *~ 0.7;
#X msg 159 370 0;
#X obj 541 467 *~ 0.2;
#X obj 541 511 dac~;
#X obj 775 233 tabplay~ buffer2;
#X obj 774 265 tabplay~ buffer3;
#X obj 773 294 tabplay~ buffer4;
#X obj 771 324 tabplay~ buffer5;
#X obj 774 354 tabplay~ buffer6;
#X obj 773 385 tabplay~ buffer7;
#X obj 774 417 tabplay~ buffer8;
#X obj 775 449 tabplay~ buffer9;
#X obj 609 168 select 1 2 3 4 5 6 7 8 9;
#X obj 772 202 tabplay~ buffer1;
#X obj 76 249 s freqMessage;
#X obj 240 376 r freqMessage;
#X obj 531 7 r sampleMessage;
#X obj 530 66 unpack f f;
#X obj 918 570 soundfiler;
#N canvas 0 22 450 278 (subpatch) 0;
#X array buffer2 1398 float 2;
#X coords 0 1 1398 -1 200 140 1 0 0;
#X restore 1446 45 graph;
#N canvas 0 22 450 278 (subpatch) 0;
#X array buffer1 192783 float 2;
#X coords 0 1 192783 -1 200 140 1;
#X restore 1214 40 graph;
#N canvas 0 22 450 278 (subpatch) 0;
#X array buffer5 15173 float 2;
#X coords 0 1 15173 -1 200 140 1 0 0;
#X restore 1450 222 graph;
#N canvas 0 22 450 278 (subpatch) 0;
#X array buffer4 150484 float 2;
#X coords 0 1 150484 -1 200 140 1 0 0;
#X restore 1214 206 graph;
#N canvas 0 22 450 278 (subpatch) 0;
#X array buffer7 33976 float 2;
#X coords 0 1 33976 -1 200 140 1 0 0;
#X restore 1217 366 graph;
#N canvas 0 22 450 278 (subpatch) 0;
#X array buffer8 959 float 2;
#X coords 0 1 959 -1 200 140 1 0 0;
#X restore 1451 383 graph;
#X obj 917 515 soundfiler;
#X obj 919 460 soundfiler;
#X obj 925 196 soundfiler;
#X obj 925 255 soundfiler;
#X obj 924 328 soundfiler;
#X obj 920 400 soundfiler;
#X obj 924 133 soundfiler;
#X obj 923 77 soundfiler;
#X floatatom 1006 79 5 0 0 0 - - -;
#X floatatom 1002 516 5 0 0 0 - - -;
#X floatatom 1004 460 5 0 0 0 - - -;
#X floatatom 1008 401 5 0 0 0 - - -;
#X floatatom 1006 329 5 0 0 0 - - -;
#X floatatom 1012 256 5 0 0 0 - - -;
#X floatatom 1011 196 10 0 0 0 - - -;
#X floatatom 1010 134 6 0 0 0 - - -;
#X floatatom 1004 572 5 0 0 0 - - -;
#X obj 923 18 loadbang;
#X obj 885 18 bng 15 250 50 0 empty empty empty 17 7 0 10 -262144 -1
-1;
#N canvas 0 22 450 278 (subpatch) 0;
#X array buffer3 11785 float 2;
#X coords 0 1 11785 -1 200 140 1 0 0;
#X restore 1673 43 graph;
#N canvas 0 22 450 278 (subpatch) 0;
#X array buffer6 8068 float 2;
#X coords 0 1 8068 -1 200 140 1 0 0;
#X restore 1672 216 graph;
#N canvas 0 22 450 278 (subpatch) 0;
#X array buffer9 17804 float 2;
#X coords 0 1 17804 -1 200 140 1 0 0;
#X restore 1665 384 graph;
#X msg 923 53 read -resize ./data/TR-808-k-long.aiff buffer1;
#X msg 924 104 read -resize ./data/TR-808-clave.aiff buffer2;
#X msg 924 172 read -resize ./data/TR-808-cowbell.aiff buffer3;
#X msg 925 231 read -resize ./data/TR-808-cymbal.aiff buffer4;
#X msg 924 304 read -resize ./data/TR-808-hh-med.aiff buffer5;
#X msg 922 363 read -resize ./data/TR-808-hh-short.aiff buffer6;
#X msg 919 436 read -resize ./data/TR-808-k-short.aiff buffer7;
#X msg 917 490 read -resize ./data/TR-808-rim2.aiff buffer8;
#X msg 917 545 read -resize ./data/TR-808-t30.aiff buffer9;
#X obj 549 40 print sample;
#X obj 74 15 netreceive -u -b 3002;
#X obj 257 400 print freg;
#X obj 234 188 print none;
#X obj 129 220 s sampleMessage;
#X obj 89 47 print message;
#X obj 75 77 oscparse;
#X obj 75 110 list trim;
#X obj 74 140 route path1 path2 path3;
#X obj 185 271 s freqMessage;
#X connect 0 0 1 0;
#X connect 0 1 4 1;
#X connect 1 0 4 0;
#X connect 2 0 1 0;
#X connect 4 0 3 0;
#X connect 4 0 3 1;
#X connect 5 0 1 0;
#X connect 6 0 7 0;
#X connect 6 0 7 1;
#X connect 8 0 6 0;
#X connect 9 0 6 0;
#X connect 10 0 6 0;
#X connect 11 0 6 0;
#X connect 12 0 6 0;
#X connect 13 0 6 0;
#X connect 14 0 6 0;
#X connect 15 0 6 0;
#X connect 16 0 17 0;
#X connect 16 1 8 0;
#X connect 16 2 9 0;
#X connect 16 3 10 0;
#X connect 16 4 11 0;
#X connect 16 5 12 0;
#X connect 16 6 13 0;
#X connect 16 7 14 0;
#X connect 16 8 15 0;
#X connect 17 0 6 0;
#X connect 19 0 0 0;
#X connect 19 0 62 0;
#X connect 20 0 21 0;
#X connect 20 0 60 0;
#X connect 21 0 16 0;
#X connect 21 1 6 1;
#X connect 22 0 45 0;
#X connect 29 0 38 0;
#X connect 29 0 59 0;
#X connect 30 0 39 0;
#X connect 30 0 58 0;
#X connect 31 0 43 0;
#X connect 31 0 54 0;
#X connect 32 0 42 0;
#X connect 32 0 55 0;
#X connect 33 0 41 0;
#X connect 33 0 56 0;
#X connect 34 0 40 0;
#X connect 34 0 57 0;
#X connect 35 0 53 0;
#X connect 35 0 44 0;
#X connect 36 0 37 0;
#X connect 36 0 52 0;
#X connect 46 0 51 0;
#X connect 47 0 51 0;
#X connect 51 0 36 0;
#X connect 52 0 35 0;
#X connect 53 0 31 0;
#X connect 54 0 32 0;
#X connect 55 0 33 0;
#X connect 56 0 34 0;
#X connect 57 0 30 0;
#X connect 58 0 29 0;
#X connect 59 0 22 0;
#X connect 61 0 65 0;
#X connect 61 0 66 0;
#X connect 66 0 67 0;
#X connect 67 0 68 0;
#X connect 68 0 18 0;
#X connect 68 1 64 0;
#X connect 68 2 69 0;
#X connect 68 3 63 0;
