#N canvas 13 23 1427 793 12;
#X obj 1280 128 hsl 128 15 0 127 0 0 empty empty empty -2 -8 0 10 -262144
-1 -1 0 1;
#X obj 1276 151 / 127;
#X floatatom 322 33 5 0 0 0 - - -;
#X msg 52 235 69;
#X msg 91 237 70;
#X msg 129 238 71;
#X msg 167 238 72;
#X msg 208 236 73;
#X msg 251 236 74;
#X msg 291 237 75;
#X msg 335 236 76;
#X msg 381 235 77;
#X msg 423 233 78;
#X obj 236 305 mtof;
#X floatatom 177 340 5 0 0 0 - - -;
#X obj 649 663 dac~;
#X obj 687 502 vline~;
#X obj 688 611 tabwrite~ output;
#N canvas 0 22 450 278 (subpatch) 0;
#X array output 100 float 3;
#A 0 0 0 0 0 0 0 0 0 0 0 0 0 0 0 0 0 0 0 0 0 0 0 0 0 0 0 0 0 0 0 0
0 0 0 0 0 0 0 0 0 0 0 0 0 0 0 0 0 0 0 0 0 0 0 0 0 0 0 0 0 0 0 0 0 0
0 0 0 0 0 0 0 0 0 0 0 0 0 0 0 0 0 0 0 0 0 0 0 0 0 0 0 0 0 0 0 0 0 0
0;
#X coords 0 1 100 -1 200 140 1;
#X restore 418 402 graph;
#X obj 688 581 metro 100;
#X obj 688 555 tgl 15 0 empty empty empty 17 7 0 10 -262144 -1 -1 0
1;
#X obj 236 339 s freq;
#X obj 1153 722 s~ filteredFreq;
#X obj 653 400 r~ filteredFreq;
#X obj 773 203 phasor~;
#X obj 418 595 cyclone/scope~ 185 159 256 3 128 -1 5 0 0 0 0 205 229
232 156 0 255 96 98 102 0;
#X obj 773 237 s~ wave;
#X obj 1075 638 r~ wave;
#X obj 653 536 *~;
#X obj 1301 189 - 1;
#X obj 1301 219 * -1;
#X obj 1214 635 r res-ramp;
#X obj 1123 341 s res-ramp;
#X obj 849 60 hsl 128 15 0 127 0 0 empty empty empty -2 -8 0 10 -262144
-1 -1 0 1;
#X obj 846 83 / 127;
#X obj 1147 636 r freq;
#X obj 816 167 + \$1;
#X obj 846 107 * 100;
#X obj 853 136 - 50;
#X floatatom 842 202 5 0 0 0 - - -;
#X obj 772 133 r freq;
#X text 710 556 Toggle tabwrite on/of;
#X text 817 439 Trigger Amplitude Ramp;
#X text 958 135 This sets the resonaonce ramp;
#X text 957 176 The starting and ending resonance;
#X text 959 193 are two numbers that sum to 1;
#X text 673 68 Add a value -50 to 50;
#X text 671 88 to initial frequency;
#X obj 1197 666 line;
#X obj 1191 108 loadbang;
#X floatatom 1237 223 5 0 0 0 - - -;
#X floatatom 1285 249 5 0 0 0 - - -;
#X msg 1197 150 1;
#X msg 1237 148 0;
#X obj 1194 266 pack f f f;
#X obj 1212 342 print;
#X text 676 28 Detuner;
#X text 999 602 key frequency as center \, and resonace from the resonace
envelope;
#X obj 1152 690 vcf~;
#X obj 390 7 notein;
#X obj 82 182 sel 36 37 38 39 40 41 42 43 44;
#X obj 29 497 ctlin 1;
#X obj 93 498 ctlin 2;
#X obj 151 501 ctlin 3;
#X obj 28 531 vsl 15 128 0 127 0 0 empty empty empty 0 -9 0 10 -257983
-1 -1 0 1;
#X obj 94 540 vsl 15 128 0 127 0 0 empty empty empty 0 -9 0 10 -262144
-1 -1 0 1;
#X obj 151 543 vsl 15 128 0 127 0 0 empty empty empty 0 -9 0 10 -262144
-1 -1 0 1;
#X msg 27 679 \$1 1;
#X msg 87 684 \$1 2;
#X msg 151 687 \$1 3;
#X obj 45 733 ctlout;
#X obj 216 509 line;
#X obj 846 29 ctlin 5;
#X obj 1277 98 ctlin 6;
#X floatatom 442 34 5 0 0 0 - - -;
#X obj 216 539 vsl 15 128 0 127 0 0 empty empty empty 0 -9 0 10 -262144
-1 -1 0 1;
#X msg 216 683 \$1 7;
#X floatatom 523 121 5 0 0 0 - - -;
#X msg 216 479 127 \, 0 \$1;
#X obj 484 92 * 30;
#X obj 359 58 stripnote;
#X obj 357 132 print stripnote;
#X obj 277 550 print brightness;
#X obj 277 516 pack f f f;
#X obj 358 101 pack f f;
#X obj 216 450 r scaledVelocity;
#X obj 495 154 s scaledVelocity;
#X obj 688 440 r scaledVelocity;
#X obj 759 535 print scaledVelocity;
#X obj 758 507 pack f f f;
#X msg 688 472 1 20 0 \, 0 50 \$1;
#X obj 1091 237 r scaledVelocity;
#X msg 1195 300 \$2 0 0 \, \$3 \$1 20;
#X text 491 174 scaledVeloctiy Triggers the;
#X text 491 190 Amplitude Ramp and the;
#X text 491 206 Resonance Ramp;
#X text 806 472 Duration depends on note velocity;
#X text 673 48 Set by MIDI CC5;
#X text 13 391 This is the light conrol;
#X text 13 409 RGB set by CC1 \, CC2 \, CC3;
#X text 13 431 Light brightness is controlled by MIDI note velocity
;
#X text 998 586 VCF Filter receives oscillator after detuning \, orignal
;
#X text 718 261 This value goes to the VCF filter;
#X text 1079 365 This value goes to the VCF filter;
#X text 288 338 This value goes to the VCF filter;
#X text 1 44 MIDI Notes 36-43 Determine the frequency;
#X text 2 61 Note velocity determines the light fadeout time;
#X text 959 156 Set by MIDI CC6;
#X connect 0 0 1 0;
#X connect 1 0 29 0;
#X connect 1 0 50 0;
#X connect 3 0 13 0;
#X connect 4 0 13 0;
#X connect 5 0 13 0;
#X connect 6 0 13 0;
#X connect 7 0 13 0;
#X connect 8 0 13 0;
#X connect 9 0 13 0;
#X connect 10 0 13 0;
#X connect 11 0 13 0;
#X connect 12 0 13 0;
#X connect 13 0 14 0;
#X connect 13 0 21 0;
#X connect 16 0 28 1;
#X connect 19 0 17 0;
#X connect 20 0 19 0;
#X connect 23 0 28 0;
#X connect 24 0 26 0;
#X connect 27 0 58 0;
#X connect 28 0 15 0;
#X connect 28 0 15 1;
#X connect 28 0 17 0;
#X connect 28 0 25 0;
#X connect 29 0 30 0;
#X connect 30 0 51 0;
#X connect 31 0 48 0;
#X connect 33 0 34 0;
#X connect 34 0 37 0;
#X connect 35 0 58 1;
#X connect 36 0 39 0;
#X connect 36 0 24 0;
#X connect 37 0 38 0;
#X connect 38 0 36 1;
#X connect 40 0 36 0;
#X connect 48 0 58 2;
#X connect 49 0 52 0;
#X connect 49 0 53 0;
#X connect 50 0 54 1;
#X connect 51 0 54 2;
#X connect 52 0 50 0;
#X connect 53 0 51 0;
#X connect 54 0 92 0;
#X connect 58 0 22 0;
#X connect 59 0 2 0;
#X connect 59 0 80 0;
#X connect 59 1 74 0;
#X connect 59 1 80 1;
#X connect 60 0 3 0;
#X connect 60 1 4 0;
#X connect 60 2 5 0;
#X connect 60 3 6 0;
#X connect 60 4 7 0;
#X connect 60 5 8 0;
#X connect 60 6 9 0;
#X connect 60 7 10 0;
#X connect 60 8 11 0;
#X connect 60 9 12 0;
#X connect 61 0 64 0;
#X connect 62 0 65 0;
#X connect 63 0 66 0;
#X connect 64 0 67 0;
#X connect 65 0 68 0;
#X connect 66 0 69 0;
#X connect 67 0 70 0;
#X connect 68 0 70 0;
#X connect 69 0 70 0;
#X connect 71 0 75 0;
#X connect 72 0 33 0;
#X connect 73 0 0 0;
#X connect 75 0 76 0;
#X connect 76 0 70 0;
#X connect 78 0 71 0;
#X connect 78 0 83 0;
#X connect 79 0 77 0;
#X connect 79 0 86 0;
#X connect 80 0 60 0;
#X connect 80 0 84 0;
#X connect 80 1 84 1;
#X connect 80 1 79 0;
#X connect 83 0 82 0;
#X connect 84 0 81 0;
#X connect 85 0 78 0;
#X connect 87 0 90 0;
#X connect 89 0 88 0;
#X connect 90 0 16 0;
#X connect 90 0 89 0;
#X connect 91 0 54 0;
#X connect 92 0 55 0;
#X connect 92 0 32 0;
