#N canvas 12 23 1427 793 12;
#X obj 1237 255 hsl 128 15 0 127 0 0 empty empty empty -2 -8 0 10 -262144
-1 -1 12000 1;
#X obj 1233 278 / 127;
#X obj 114 18 key;
#X floatatom 130 49 5 0 0 0 - - -;
#X obj 114 82 sel 113 119 101 114 116 121 117 105 111 112 91;
#X msg 88 127 69;
#X msg 125 135 70;
#X msg 161 138 71;
#X msg 199 138 72;
#X msg 240 136 73;
#X msg 283 136 74;
#X msg 323 137 75;
#X msg 367 136 76;
#X msg 413 135 77;
#X msg 455 133 78;
#X msg 497 129 79;
#X obj 268 205 mtof;
#X floatatom 182 238 5 0 0 0 - - -;
#X obj 549 689 dac~;
#X floatatom 567 125 5 0 0 0 - - -;
#X obj 587 528 vline~;
#X obj 588 637 tabwrite~ output;
#N canvas 0 22 450 278 (subpatch) 0;
#X array output 100 float 3;
#A 0 0 0 0 0 0 0 0 0 0 0 0 0 0 0 0 0 0 0 0 0 0 0 0 0 0 0 0 0 0 0 0
0 0 0 0 0 0 0 0 0 0 0 0 0 0 0 0 0 0 0 0 0 0 0 0 0 0 0 0 0 0 0 0 0 0
0 0 0 0 0 0 0 0 0 0 0 0 0 0 0 0 0 0 0 0 0 0 0 0 0 0 0 0 0 0 0 0 0 0
0;
#X coords 0 1 100 -1 200 140 1;
#X restore 318 428 graph;
#X obj 588 607 metro 100;
#X obj 588 581 tgl 15 0 empty empty empty 17 7 0 10 -262144 -1 -1 0
1;
#X obj 1130 353 r freq;
#X obj 268 239 s freq;
#X obj 1031 721 s~ filteredFreq;
#X obj 553 426 r~ filteredFreq;
#X obj 773 203 phasor~;
#X obj 318 621 cyclone/scope~ 185 159 256 3 128 -1 5 0 0 0 0 205 229
232 156 0 255 96 98 102 0;
#X obj 773 237 s~ wave;
#X obj 953 637 r~ wave;
#X obj 553 562 *~;
#X obj 1258 316 - 1;
#X obj 1258 346 * -1;
#X obj 588 466 r freq;
#X obj 1092 634 r res-ramp;
#X obj 1079 473 s res-ramp;
#X obj 849 60 hsl 128 15 0 127 0 0 empty empty empty -2 -8 0 10 -262144
-1 -1 9700 1;
#X obj 846 83 / 127;
#X obj 1025 635 r freq;
#X obj 816 167 + \$1;
#X obj 846 107 * 100;
#X obj 853 136 - 50;
#X floatatom 842 202 5 0 0 0 - - -;
#X obj 772 133 r freq;
#X text 614 580 Toggle tabwrite on/of;
#X text 646 465 Trigger Amplitude Ramp;
#X text 915 273 This sets the resonaonce ramp;
#X text 914 303 The starting and ending resonance;
#X text 916 320 are two numbers that sum to 1;
#X text 657 69 Add a value -50 to 50;
#X text 656 86 to initial frequency;
#X obj 1075 665 line;
#X obj 1148 235 loadbang;
#X floatatom 1194 350 5 0 0 0 - - -;
#X floatatom 1242 376 5 0 0 0 - - -;
#X msg 1154 277 1;
#X msg 1194 275 0;
#X obj 1151 393 pack f f f;
#X obj 1168 474 print;
#X text 788 24 Detuner;
#X text 876 585 Bandpass Filter receives oscillator after detuning
\, orignal;
#X text 877 601 key frequency as center \, and resonace from the resonace
envelope;
#X text 915 338 adjusted with the slider;
#X text 185 47 Top row of QWERTY keyboard plays the notes;
#X obj 1030 689 vcf~;
#X msg 1151 432 \$2 0 0 \, \$3 1000 20;
#X msg 588 498 1 20 0 \, 0 20 1000;
#X msg 1243 177 100 \, 0 1000;
#X connect 0 0 1 0;
#X connect 1 0 34 0;
#X connect 1 0 56 0;
#X connect 2 0 3 0;
#X connect 2 0 4 0;
#X connect 4 0 5 0;
#X connect 4 1 6 0;
#X connect 4 2 7 0;
#X connect 4 3 8 0;
#X connect 4 4 9 0;
#X connect 4 5 10 0;
#X connect 4 6 11 0;
#X connect 4 7 12 0;
#X connect 4 8 13 0;
#X connect 4 9 14 0;
#X connect 4 10 15 0;
#X connect 4 11 19 0;
#X connect 5 0 16 0;
#X connect 6 0 16 0;
#X connect 7 0 16 0;
#X connect 8 0 16 0;
#X connect 9 0 16 0;
#X connect 10 0 16 0;
#X connect 11 0 16 0;
#X connect 12 0 16 0;
#X connect 13 0 16 0;
#X connect 14 0 16 0;
#X connect 15 0 16 0;
#X connect 16 0 17 0;
#X connect 16 0 26 0;
#X connect 20 0 33 1;
#X connect 23 0 21 0;
#X connect 24 0 23 0;
#X connect 25 0 60 0;
#X connect 28 0 33 0;
#X connect 29 0 31 0;
#X connect 32 0 67 0;
#X connect 33 0 18 0;
#X connect 33 0 18 1;
#X connect 33 0 21 0;
#X connect 33 0 30 0;
#X connect 34 0 35 0;
#X connect 35 0 57 0;
#X connect 36 0 69 0;
#X connect 37 0 54 0;
#X connect 39 0 40 0;
#X connect 40 0 43 0;
#X connect 41 0 67 1;
#X connect 42 0 45 0;
#X connect 42 0 29 0;
#X connect 43 0 44 0;
#X connect 44 0 42 1;
#X connect 46 0 42 0;
#X connect 54 0 67 2;
#X connect 55 0 58 0;
#X connect 55 0 59 0;
#X connect 56 0 60 1;
#X connect 57 0 60 2;
#X connect 58 0 56 0;
#X connect 59 0 57 0;
#X connect 60 0 68 0;
#X connect 67 0 27 0;
#X connect 68 0 61 0;
#X connect 68 0 38 0;
#X connect 69 0 20 0;
