#N canvas 158 41 1440 776 12;
#X obj -18 601 *~ 0.2;
#X obj -3 398 hsl 128 15 0 127 0 0 empty empty empty -2 -8 0 10 -262144
-1 -1 7900 1;
#X obj -18 645 dac~;
#X floatatom -6 448 5 0 0 0 - - -;
#X obj 431 561 soundfiler;
#N canvas 0 22 450 278 (subpatch) 0;
#X array buffer2 11785 float 2;
#X coords 0 1 11785 -1 200 140 1 0 0;
#X restore 1048 78 graph;
#N canvas 0 22 450 278 (subpatch) 0;
#X array buffer3 150484 float 2;
#X coords 0 1 150484 -1 200 140 1 0 0;
#X restore 1287 82 graph;
#N canvas 0 22 450 278 (subpatch) 0;
#X array buffer1 12633 float 2;
#X coords 0 1 12633 -1 200 140 1;
#X restore 816 73 graph;
#N canvas 0 22 450 278 (subpatch) 0;
#X array buffer5 17804 float 2;
#X coords 0 1 17804 -1 200 140 1 0 0;
#X restore 1052 255 graph;
#N canvas 0 22 450 278 (subpatch) 0;
#X array buffer4 15173 float 2;
#X coords 0 1 15173 -1 200 140 1 0 0;
#X restore 816 239 graph;
#N canvas 0 22 450 278 (subpatch) 0;
#X array buffer7 63109 float 2;
#X coords 0 1 63109 -1 200 140 1 0 0;
#X restore 819 399 graph;
#N canvas 0 22 450 278 (subpatch) 0;
#X array buffer8 33976 float 2;
#X coords 0 1 33976 -1 200 140 1 0 0;
#X restore 1053 416 graph;
#N canvas 0 22 450 278 (subpatch) 0;
#X array buffer6 8068 float 2;
#X coords 0 1 8068 -1 200 140 1 0 0;
#X restore 1286 255 graph;
#N canvas 0 22 450 278 (subpatch) 0;
#X array buffer9 192783 float 2;
#X coords 0 1 192783 -1 200 140 1 0 0;
#X restore 1279 423 graph;
#X obj 430 506 soundfiler;
#X obj 435 12 bng 15 250 50 0 empty empty empty 17 7 0 10 -262144 -1
-1;
#X obj 432 451 soundfiler;
#X obj 438 187 soundfiler;
#X obj 438 246 soundfiler;
#X obj 437 319 soundfiler;
#X obj 433 391 soundfiler;
#X obj 437 124 soundfiler;
#X obj 436 68 soundfiler;
#X obj -216 37 - 48;
#X obj -216 6 key keyup;
#X floatatom 519 70 5 0 0 0 - - -;
#X floatatom 515 507 5 0 0 0 - - -;
#X floatatom 517 451 5 0 0 0 - - -;
#X floatatom 521 392 5 0 0 0 - - -;
#X floatatom 519 320 5 0 0 0 - - -;
#X floatatom 525 247 5 0 0 0 - - -;
#X floatatom 524 187 10 0 0 0 - - -;
#X floatatom 523 125 6 0 0 0 - - -;
#X floatatom 517 563 5 0 0 0 - - -;
#X obj -6 422 / 127;
#X obj 231 376 tabplay~ buffer2;
#X obj 230 408 tabplay~ buffer3;
#X obj 229 437 tabplay~ buffer4;
#X obj 227 467 tabplay~ buffer5;
#X obj 230 497 tabplay~ buffer6;
#X obj 229 528 tabplay~ buffer7;
#X obj 230 560 tabplay~ buffer8;
#X obj 231 592 tabplay~ buffer9;
#X obj -392 431 metro 500;
#X obj -390 322 tgl 15 0 empty empty empty 17 7 0 10 -262144 -1 -1
0 1;
#X obj -366 350 hsl 128 15 0 127 0 0 empty empty empty -2 -8 0 10 -262144
-1 -1 10700 1;
#X floatatom -371 403 5 0 0 0 - - -;
#X text -226 350 Metro Speed 100-1000ms;
#X obj 65 311 select 1 2 3 4 5 6 7 8 9;
#X obj -370 376 expr ((900/127)*$f1)+100;
#X obj -366 456 receive metroVal;
#X obj 94 198 send metroVal;
#X msg -14 123 1;
#X obj -392 520 send value;
#X obj 65 283 receive value;
#X msg 17 124 2;
#X msg 46 125 3;
#X msg 79 126 4;
#X msg 114 126 5;
#X msg 150 126 6;
#X msg 187 126 7;
#X msg 223 126 8;
#X msg 259 126 9;
#X obj 349 135 random 9;
#X obj 349 163 + 1;
#X obj 350 192 send value;
#X floatatom 349 108 5 0 0 0 - - -;
#X msg -328 118 1;
#X msg -297 119 2;
#X msg -268 120 3;
#X msg -235 121 4;
#X msg -200 121 5;
#X msg -164 121 6;
#X msg -127 121 7;
#X msg -91 121 8;
#X msg -55 121 9;
#X obj -220 193 send value;
#X obj -219 73 select 1 2 3 4 5 6 7 8 9 -15 16 -13 -12 -11 46 -10 -6
-8 -16;
#X text -388 297 Metro toggle;
#X text -6 377 Amplitude;
#X text 464 10 Load files to buffer;
#X obj -283 302 loadbang;
#X msg -335 321 57;
#X text -119 12 [1-9] Triggers Sound \, [space] triggers Random Sound
;
#X text -119 36 [Shift] + [1-9] Sets Metro Sound;
#X text 63 245 Receives value from key press \, metro and random;
#X obj 228 345 tabplay~ buffer1;
#X msg 437 100 read -resize ./data/TR-808-cowbell.aiff buffer2;
#X msg 438 163 read -resize ./data/TR-808-cymbal.aiff buffer3;
#X msg 438 222 read -resize ./data/TR-808-hh-med.aiff buffer4;
#X msg 437 295 read -resize ./data/TR-808-t30.aiff buffer5;
#X msg 433 367 read -resize ./data/TR-808-hh-short.aiff buffer6;
#X msg 432 427 read -resize ./data/TR-808-ho1.aiff buffer7;
#X msg 430 481 read -resize ./data/TR-808-k-short.aiff buffer8;
#X msg 436 43 read -resize ./data/TR-909-clap.aiff buffer1;
#X msg 430 536 read -resize ./data/TR-808-k-long.aiff buffer9;
#X floatatom -287 70 5 0 0 0 - - -;
#X obj -392 480 f;
#X connect 0 0 2 0;
#X connect 0 0 2 1;
#X connect 1 0 34 0;
#X connect 3 0 0 1;
#X connect 4 0 33 0;
#X connect 14 0 26 0;
#X connect 14 0 95 0;
#X connect 15 0 94 0;
#X connect 16 0 27 0;
#X connect 16 0 93 0;
#X connect 17 0 31 0;
#X connect 17 0 89 0;
#X connect 18 0 30 0;
#X connect 18 0 90 0;
#X connect 19 0 29 0;
#X connect 19 0 91 0;
#X connect 20 0 28 0;
#X connect 20 0 92 0;
#X connect 21 0 88 0;
#X connect 21 0 32 0;
#X connect 22 0 25 0;
#X connect 22 0 87 0;
#X connect 23 0 77 0;
#X connect 23 0 96 0;
#X connect 24 0 23 0;
#X connect 34 0 3 0;
#X connect 35 0 0 0;
#X connect 36 0 0 0;
#X connect 37 0 0 0;
#X connect 38 0 0 0;
#X connect 39 0 0 0;
#X connect 40 0 0 0;
#X connect 41 0 0 0;
#X connect 42 0 0 0;
#X connect 43 0 97 0;
#X connect 44 0 43 0;
#X connect 45 0 49 0;
#X connect 46 0 43 1;
#X connect 48 0 86 0;
#X connect 48 1 35 0;
#X connect 48 2 36 0;
#X connect 48 3 37 0;
#X connect 48 4 38 0;
#X connect 48 5 39 0;
#X connect 48 6 40 0;
#X connect 48 7 41 0;
#X connect 48 8 42 0;
#X connect 49 0 46 0;
#X connect 50 0 97 1;
#X connect 52 0 51 0;
#X connect 54 0 48 0;
#X connect 55 0 51 0;
#X connect 56 0 51 0;
#X connect 57 0 51 0;
#X connect 58 0 51 0;
#X connect 59 0 51 0;
#X connect 60 0 51 0;
#X connect 61 0 51 0;
#X connect 62 0 51 0;
#X connect 63 0 64 0;
#X connect 64 0 65 0;
#X connect 67 0 76 0;
#X connect 68 0 76 0;
#X connect 69 0 76 0;
#X connect 70 0 76 0;
#X connect 71 0 76 0;
#X connect 72 0 76 0;
#X connect 73 0 76 0;
#X connect 74 0 76 0;
#X connect 75 0 76 0;
#X connect 77 0 67 0;
#X connect 77 1 68 0;
#X connect 77 2 69 0;
#X connect 77 3 70 0;
#X connect 77 4 71 0;
#X connect 77 5 72 0;
#X connect 77 6 73 0;
#X connect 77 7 74 0;
#X connect 77 8 75 0;
#X connect 77 9 52 0;
#X connect 77 10 55 0;
#X connect 77 11 56 0;
#X connect 77 12 57 0;
#X connect 77 13 58 0;
#X connect 77 14 59 0;
#X connect 77 15 60 0;
#X connect 77 16 61 0;
#X connect 77 17 62 0;
#X connect 77 18 63 0;
#X connect 77 19 66 0;
#X connect 81 0 82 0;
#X connect 82 0 45 0;
#X connect 86 0 0 0;
#X connect 87 0 21 0;
#X connect 88 0 17 0;
#X connect 89 0 18 0;
#X connect 90 0 19 0;
#X connect 91 0 20 0;
#X connect 92 0 16 0;
#X connect 93 0 14 0;
#X connect 94 0 22 0;
#X connect 95 0 4 0;
#X connect 97 0 53 0;
