#N canvas 666 52 760 743 12;
#X msg 91 30 1 \, 50 30000;
#X obj 91 54 line;
#X floatatom 91 78 5 0 0 0 - - -;
#X obj 91 101 phasor~;
#X obj 91 125 *~ 0.7;
#X obj 91 149 dac~;
#X msg 40 32 0;
#X msg 271 30 440;
#X obj 272 102 *~ 0.7;
#X obj 272 126 dac~;
#X msg 309 30 880;
#X obj 272 78 osc~;
#X msg 224 30 0;
#X msg 351 30 1760;
#X msg 447 38 100;
#X obj 448 100 *~ 0.7;
#X obj 448 124 dac~;
#X obj 448 76 osc~;
#X msg 484 38 200;
#X msg 522 37 300;
#X msg 559 37 400;
#X msg 597 37 500;
#X msg 633 37 600;
#X msg 671 36 700;
#X msg 706 36 800;
#X msg 408 37 0;
#X floatatom 37 214 5 0 0 0 - - -;
#X obj 37 237 ftom;
#X floatatom 37 261 5 0 0 0 - - -;
#X msg 37 189 440;
#X floatatom 102 214 5 0 0 0 - - -;
#X floatatom 102 261 5 0 0 0 - - -;
#X obj 102 237 mtof;
#X msg 102 189 69;
#X floatatom 246 267 5 0 0 0 - - -;
#X obj 315 257 bng 15 250 50 0 empty empty empty 17 7 0 10 -262144
-1 -1;
#X floatatom 315 324 5 0 0 0 - - -;
#X obj 246 297 osc~;
#X obj 246 331 dac~;
#X obj 315 285 snapshot~;
#X msg 246 232 1000;
#X msg 211 233 0;
#X obj 313 189 tgl 15 0 empty empty empty 17 7 0 10 -262144 -1 -1 0
1;
#X obj 314 215 metro 200;
#X floatatom 452 256 5 0 0 0 - - -;
#X floatatom 521 313 5 0 0 0 - - -;
#X obj 452 286 osc~;
#X obj 452 320 dac~;
#X msg 452 221 1000;
#X msg 417 222 0;
#X obj 521 274 unsig~ 200;
#X obj 47 314 tgl 15 0 empty empty empty 17 7 0 10 -262144 -1 -1 1
1;
#X obj 46 340 metro 500;
#X obj 46 373 t b b;
#X obj 46 408 random 20;
#X obj 45 441 + 70;
#X floatatom 46 479 5 0 0 0 - - -;
#X obj 46 512 + 0;
#X floatatom 46 549 5 0 0 0 - - -;
#X obj 46 583 mtof;
#X obj 46 643 *~ 0.7;
#X obj 46 673 dac~;
#X obj 46 613 osc~;
#X msg 189 373 0 \, 100 30000;
#X obj 188 407 line;
#X obj 149 442 random;
#X obj 150 470 / 100;
#X msg 270 506 0;
#X floatatom 133 518 5 0 0 0 - - -;
#X connect 0 0 1 0;
#X connect 1 0 2 0;
#X connect 2 0 3 0;
#X connect 3 0 4 0;
#X connect 4 0 5 0;
#X connect 4 0 5 1;
#X connect 6 0 1 0;
#X connect 7 0 11 0;
#X connect 8 0 9 0;
#X connect 8 0 9 1;
#X connect 10 0 11 0;
#X connect 11 0 8 0;
#X connect 12 0 11 0;
#X connect 13 0 11 0;
#X connect 14 0 17 0;
#X connect 15 0 16 0;
#X connect 15 0 16 1;
#X connect 17 0 15 0;
#X connect 18 0 17 0;
#X connect 19 0 17 0;
#X connect 20 0 17 0;
#X connect 21 0 17 0;
#X connect 22 0 17 0;
#X connect 23 0 17 0;
#X connect 24 0 17 0;
#X connect 25 0 17 0;
#X connect 26 0 27 0;
#X connect 27 0 28 0;
#X connect 29 0 26 0;
#X connect 30 0 32 0;
#X connect 32 0 31 0;
#X connect 33 0 30 0;
#X connect 34 0 37 0;
#X connect 35 0 39 0;
#X connect 37 0 38 0;
#X connect 37 0 39 0;
#X connect 39 0 36 0;
#X connect 40 0 34 0;
#X connect 41 0 34 0;
#X connect 42 0 43 0;
#X connect 43 0 35 0;
#X connect 44 0 46 0;
#X connect 46 0 47 0;
#X connect 46 0 50 0;
#X connect 48 0 44 0;
#X connect 49 0 44 0;
#X connect 50 0 45 0;
#X connect 51 0 52 0;
#X connect 52 0 53 0;
#X connect 53 0 54 0;
#X connect 53 1 65 0;
#X connect 54 0 55 0;
#X connect 55 0 56 0;
#X connect 56 0 57 0;
#X connect 57 0 58 0;
#X connect 58 0 59 0;
#X connect 59 0 62 0;
#X connect 60 0 61 0;
#X connect 62 0 60 0;
#X connect 63 0 64 0;
#X connect 64 0 65 1;
#X connect 65 0 66 0;
#X connect 66 0 57 1;
#X connect 66 0 68 0;
#X connect 67 0 62 0;
#X connect 67 0 64 0;
