#N canvas 740 119 615 666 10;
#X floatatom 33 57 5 0 0 0 - - -;
#X floatatom 37 114 5 0 0 0 - - -;
#X obj 35 82 rmstodb;
#X msg 35 28 0;
#X floatatom 98 57 5 0 0 0 - - -;
#X floatatom 102 114 5 0 0 0 - - -;
#X obj 100 82 dbtorms;
#X msg 100 28 100;
#X obj 200 122 *~ 0.5;
#X obj 201 154 dac~;
#X floatatom 197 46 5 0 0 0 - - -;
#X msg 214 9 0;
#X obj 199 82 osc~;
#X msg 174 8 440;
#X msg 267 89 0;
#X msg 333 89 0.4;
#X msg 367 90 0.7;
#X msg 404 89 1;
#X msg 301 89 0.1;
#X obj 61 320 dac~;
#X floatatom 57 212 5 0 0 0 - - -;
#X msg 74 175 0;
#X obj 59 248 osc~;
#X msg 34 174 440;
#X obj 130 190 hsl 128 15 0 127 0 0 empty empty empty -2 -8 0 10 -262144
-1 -1 0 1;
#X obj 126 216 / 127;
#X obj 125 248 sig~;
#X obj 60 288 *~;
#X text 158 245 removes crackle;
#X floatatom 346 212 5 0 0 0 - - -;
#X msg 363 175 0;
#X obj 348 248 osc~;
#X msg 323 174 440;
#X obj 348 304 dac~;
#X obj 348 275 *~;
#X msg 430 183 0 \, 1 5000;
#X msg 464 216 1 \, 0 5000;
#X obj 421 254 line~;
#X floatatom 46 409 5 0 0 0 - - -;
#X msg 63 372 0;
#X obj 48 445 osc~;
#X msg 23 371 440;
#X obj 48 501 dac~;
#X obj 48 472 *~;
#X obj 121 451 line~;
#X obj 121 357 hsl 128 15 0 127 0 0 empty empty empty -2 -8 0 10 -262144
-1 -1 0 1;
#X obj 117 383 / 127;
#X msg 118 414 \$1 20;
#X text 135 431 This really removes the crackle \, interpolation;
#X obj 124 507 env~ 128;
#X floatatom 126 535 5 0 0 0 - - -;
#X obj 126 561 dbtorms;
#X floatatom 127 589 5 0 0 0 - - -;
#X floatatom 314 511 5 0 0 0 - - -;
#X msg 331 474 0;
#X obj 316 547 osc~;
#X msg 291 473 440;
#X obj 316 603 dac~;
#X obj 316 574 *~;
#X msg 406 462 0 \, 1 5000;
#X obj 409 493 line~;
#X obj 407 524 *~;
#X obj 413 587 env~ 128;
#X obj 416 616 - 100;
#X obj 418 645 vu 15 120 empty empty -1 -8 0 10 -66577 -1 1 0;
#X obj 365 621 pvu~;
#X obj 366 650 vu 15 120 empty empty -1 -8 0 10 -66577 -1 1 0;
#X floatatom 39 687 5 0 0 0 - - -;
#X msg 56 650 0;
#X obj 41 723 osc~;
#X msg 16 649 440;
#X obj 41 779 dac~;
#X obj 41 750 *~;
#X obj 89 662 tgl 15 0 empty empty empty 17 7 0 10 -262144 -1 -1 0
1;
#X msg 89 691 \$1 30;
#X obj 91 723 line~;
#X floatatom 163 682 5 0 0 0 - - -;
#X msg 180 645 0;
#X obj 165 718 osc~;
#X msg 140 644 440;
#X obj 165 774 dac~;
#X obj 165 745 *~;
#X obj 218 705 tgl 15 0 empty empty empty 17 7 0 10 -262144 -1 -1 0
1;
#X text -2 616 Compare these two to hear pop vs. no-pop \, left side
has a ramp;
#X floatatom 57 877 5 0 0 0 - - -;
#X msg 74 840 0;
#X obj 59 913 osc~;
#X msg 34 839 440;
#X obj 59 969 dac~;
#X floatatom 147 878 5 0 0 0 - - -;
#X msg 164 841 0;
#X obj 149 914 osc~;
#X msg 124 840 660;
#X obj 59 940 *~ 0.7;
#X obj 149 941 *~ 0.7;
#X obj 300 963 dac~;
#X obj 300 934 *~ 0.7;
#X obj 390 935 *~ 0.7;
#X obj 300 907 osc~ 400;
#X obj 390 908 osc~ 400;
#X obj 353 839 bng 15 250 50 0 empty empty empty 17 7 0 10 -262144
-1 -1;
#X msg 348 864 0;
#X msg 382 865 0.5;
#X floatatom 401 349 5 0 0 0 - - -;
#X floatatom 529 368 5 0 0 0 - - -;
#X obj 519 404 bng 15 250 50 0 empty empty empty 17 7 0 10 -262144
-1 -1;
#X msg 534 326 0;
#X msg 464 336 1;
#X connect 0 0 2 0;
#X connect 2 0 1 0;
#X connect 3 0 0 0;
#X connect 4 0 6 0;
#X connect 6 0 5 0;
#X connect 7 0 4 0;
#X connect 8 0 9 0;
#X connect 8 0 9 1;
#X connect 10 0 12 0;
#X connect 11 0 10 0;
#X connect 12 0 8 0;
#X connect 13 0 10 0;
#X connect 14 0 8 1;
#X connect 15 0 8 1;
#X connect 16 0 8 1;
#X connect 17 0 8 1;
#X connect 18 0 8 1;
#X connect 20 0 22 0;
#X connect 21 0 20 0;
#X connect 22 0 27 0;
#X connect 23 0 20 0;
#X connect 24 0 25 0;
#X connect 25 0 26 0;
#X connect 26 0 27 1;
#X connect 27 0 19 0;
#X connect 27 0 19 1;
#X connect 29 0 31 0;
#X connect 30 0 29 0;
#X connect 31 0 34 0;
#X connect 32 0 29 0;
#X connect 34 0 33 0;
#X connect 34 0 33 1;
#X connect 35 0 37 0;
#X connect 36 0 37 0;
#X connect 37 0 34 1;
#X connect 38 0 40 0;
#X connect 39 0 38 0;
#X connect 40 0 43 0;
#X connect 41 0 38 0;
#X connect 43 0 42 0;
#X connect 43 0 42 1;
#X connect 43 0 49 0;
#X connect 44 0 43 1;
#X connect 45 0 46 0;
#X connect 46 0 47 0;
#X connect 47 0 44 0;
#X connect 49 0 50 0;
#X connect 50 0 51 0;
#X connect 51 0 52 0;
#X connect 53 0 55 0;
#X connect 54 0 53 0;
#X connect 55 0 58 0;
#X connect 56 0 53 0;
#X connect 58 0 57 0;
#X connect 58 0 57 1;
#X connect 58 0 62 0;
#X connect 58 0 65 0;
#X connect 59 0 60 0;
#X connect 60 0 61 0;
#X connect 60 0 61 1;
#X connect 61 0 58 1;
#X connect 62 0 63 0;
#X connect 63 0 64 0;
#X connect 65 0 66 0;
#X connect 67 0 69 0;
#X connect 68 0 67 0;
#X connect 69 0 72 0;
#X connect 70 0 67 0;
#X connect 72 0 71 0;
#X connect 72 0 71 1;
#X connect 73 0 74 0;
#X connect 74 0 75 0;
#X connect 75 0 72 1;
#X connect 76 0 78 0;
#X connect 77 0 76 0;
#X connect 78 0 81 0;
#X connect 79 0 76 0;
#X connect 81 0 80 0;
#X connect 81 0 80 1;
#X connect 82 0 81 1;
#X connect 84 0 86 0;
#X connect 85 0 84 0;
#X connect 86 0 93 0;
#X connect 87 0 84 0;
#X connect 89 0 91 0;
#X connect 90 0 89 0;
#X connect 91 0 94 0;
#X connect 92 0 89 0;
#X connect 93 0 88 0;
#X connect 93 0 88 1;
#X connect 94 0 88 0;
#X connect 94 0 88 1;
#X connect 96 0 95 0;
#X connect 96 0 95 1;
#X connect 97 0 95 0;
#X connect 97 0 95 1;
#X connect 100 0 101 0;
#X connect 104 0 105 0;
#X connect 106 0 104 0;
#X connect 107 0 104 0;
